<svg xmlns="http://www.w3.org/2000/svg" width="24" height="24" viewBox="0 0 24 24" fill="none" stroke="#FF5722" stroke-width="2" stroke-linecap="round" stroke-linejoin="round">
  <path d="M17 12h1a2 2 0 0 1 0 4h-1"></path>
  <path d="M6 12h10"></path>
  <path d="M7 5.5a5.5 5.5 0 0 1 8 0"></path>
  <path d="M19.906 18.265A9.945 9.945 0 0 0 21 14c0-5.523-4.477-10-10-10S1 8.477 1 14a9.945 9.945 0 0 0 3 7.135"></path>
  <path d="M18 18v3"></path>
  <path d="M6 18v3"></path>
  <path d="M18 21H6"></path>
</svg>